<?xml version="1.0" ?><svg enable-background="new 0 0 32 32" version="1.1" viewBox="0 0 32 32" xml:space="preserve" xmlns="http://www.w3.org/2000/svg" xmlns:xlink="http://www.w3.org/1999/xlink"><g id="OUTLINE_copy_2"><g><g><circle cx="22.616" cy="9.766" r="0.863"/></g><g><path d="M15.984,13.481c-4.2,0-7.617,2.157-7.617,4.808c0,2.651,3.417,4.808,7.617,4.808s7.617-2.157,7.617-4.808     C23.601,15.638,20.184,13.481,15.984,13.481z M11.686,17.277c0-0.873,0.711-1.583,1.584-1.583c0.873,0,1.583,0.71,1.583,1.583     c0,0.873-0.71,1.583-1.583,1.583C12.396,18.86,11.686,18.15,11.686,17.277z M19.328,21.082c-0.03,0.031-0.306,0.31-0.859,0.578     c-0.714,0.345-1.556,0.52-2.501,0.52c-0.952,0-1.783-0.178-2.471-0.529c-0.536-0.274-0.79-0.561-0.817-0.593     c-0.101-0.118-0.15-0.268-0.138-0.423c0.012-0.155,0.084-0.296,0.202-0.397c0.105-0.09,0.24-0.139,0.378-0.139     c0.168,0,0.328,0.073,0.439,0.199c0.002,0.002,0.693,0.719,2.408,0.719c1.736,0,2.496-0.716,2.528-0.747     c0.106-0.108,0.254-0.17,0.411-0.17c0.152,0,0.296,0.059,0.405,0.165C19.54,20.486,19.547,20.853,19.328,21.082z M18.889,18.86     c-0.873,0-1.584-0.71-1.584-1.583c0-0.873,0.71-1.583,1.584-1.583c0.873,0,1.583,0.71,1.583,1.583     C20.472,18.15,19.762,18.86,18.889,18.86z"/></g><g><path d="M9.093,14.589c-0.131-0.045-0.269-0.068-0.41-0.068c-0.697,0-1.265,0.567-1.265,1.265c0,0.243,0.072,0.479,0.202,0.681     C7.94,15.79,8.441,15.15,9.093,14.589z"/></g><g><path d="M16,0C7.163,0,0,7.164,0,16s7.164,16,16,16c8.837,0,16-7.164,16-16S24.837,0,16,0z M24.728,17.756     c0.024,0.181,0.036,0.36,0.036,0.533c0,3.292-3.939,5.971-8.781,5.971s-8.781-2.679-8.781-5.971c0-0.18,0.013-0.366,0.039-0.555     c-0.621-0.458-0.987-1.176-0.987-1.948c0-1.339,1.089-2.428,2.428-2.428c0.522,0,1.03,0.17,1.448,0.481     c1.505-0.915,3.424-1.449,5.442-1.513l1.547-4.395l3.707,0.886c0.349-0.661,1.032-1.078,1.79-1.078     c1.117,0,2.027,0.909,2.027,2.027c0,1.117-0.909,2.026-2.027,2.026c-1.051,0-1.919-0.806-2.017-1.833l-2.73-0.653l-1.069,3.038     c1.874,0.118,3.652,0.647,5.056,1.506c0.42-0.318,0.933-0.492,1.462-0.492c1.339,0,2.428,1.089,2.428,2.428     C25.745,16.574,25.368,17.3,24.728,17.756z"/></g><g><path d="M23.317,14.521c-0.149,0-0.295,0.026-0.433,0.076c0.656,0.567,1.158,1.213,1.476,1.899     c0.143-0.208,0.222-0.455,0.222-0.711C24.582,15.089,24.014,14.521,23.317,14.521z"/></g></g></g></svg>